<svg xmlns="http://www.w3.org/2000/svg" xmlns:xlink="http://www.w3.org/1999/xlink" width="1000" zoomAndPan="magnify" viewBox="0 0 750 225" height="300" preserveAspectRatio="xMidYMid meet" version="1.2"><defs><filter x="0%" y="0%" width="100%" filterUnits="objectBoundingBox" id="3fdef71849" height="100%"><feColorMatrix values="0 0 0 0 1 0 0 0 0 1 0 0 0 0 1 0 0 0 1 0" type="matrix" in="SourceGraphic"/></filter><clipPath id="e06b13bae7"><path d="M 3 0.480469 L 270 0.480469 L 270 6.71875 L 3 6.71875 Z M 3 0.480469 "/></clipPath><clipPath id="ade130b9a2"><rect x="0" width="273" y="0" height="7"/></clipPath><clipPath id="098a16dca8"><path d="M 3 0.199219 L 270 0.199219 L 270 6.441406 L 3 6.441406 Z M 3 0.199219 "/></clipPath><clipPath id="7c1f18d7e7"><rect x="0" width="273" y="0" height="7"/></clipPath><clipPath id="be8700d5a8"><path d="M 3 0.71875 L 270 0.71875 L 270 6.960938 L 3 6.960938 Z M 3 0.71875 "/></clipPath><clipPath id="03edde70f1"><rect x="0" width="273" y="0" height="7"/></clipPath><clipPath id="0a86daf33b"><path d="M 3 0.960938 L 270 0.960938 L 270 7 L 3 7 Z M 3 0.960938 "/></clipPath><clipPath id="3f44a1f77c"><rect x="0" width="273" y="0" height="8"/></clipPath><clipPath id="6dddd9d6c0"><path d="M 3 0.238281 L 270 0.238281 L 270 6.480469 L 3 6.480469 Z M 3 0.238281 "/></clipPath><clipPath id="3527676eb8"><rect x="0" width="273" y="0" height="7"/></clipPath><clipPath id="323f46f8aa"><path d="M 3 0.480469 L 270 0.480469 L 270 6.71875 L 3 6.71875 Z M 3 0.480469 "/></clipPath><clipPath id="fceffa8bec"><rect x="0" width="273" y="0" height="7"/></clipPath><clipPath id="73e79c6bbd"><path d="M 3 0.199219 L 270 0.199219 L 270 6.441406 L 3 6.441406 Z M 3 0.199219 "/></clipPath><clipPath id="aa584158b4"><rect x="0" width="273" y="0" height="7"/></clipPath><clipPath id="2f08aaa52c"><path d="M 3 0.960938 L 270 0.960938 L 270 7 L 3 7 Z M 3 0.960938 "/></clipPath><clipPath id="1ec5143d0f"><rect x="0" width="273" y="0" height="8"/></clipPath><clipPath id="0761281a8a"><path d="M 3 0.558594 L 270 0.558594 L 270 6.800781 L 3 6.800781 Z M 3 0.558594 "/></clipPath><clipPath id="99af057884"><rect x="0" width="273" y="0" height="7"/></clipPath><clipPath id="80136fc91c"><path d="M 3 0.839844 L 270 0.839844 L 270 7 L 3 7 Z M 3 0.839844 "/></clipPath><clipPath id="652aad6bac"><rect x="0" width="273" y="0" height="8"/></clipPath></defs><g id="ffa0eb5b21"><rect x="0" width="750" y="0" height="225" style="fill:#ffffff;fill-opacity:1;stroke:none;"/><rect x="0" width="750" y="0" height="225" style="fill:#ffffff;fill-opacity:1;stroke:none;"/><g style="fill:#0b3f47;fill-opacity:1;"><g transform="translate(22.499999, 143.96206)"><path style="stroke:none" d="M 33.046875 -17.25 L 51.28125 -17.25 C 54.851562 -17.25 57.425781 -17.984375 59 -19.453125 C 60.582031 -20.921875 61.375 -23.335938 61.375 -26.703125 L 61.375 -36.140625 C 61.375 -39.503906 60.554688 -41.890625 58.921875 -43.296875 C 57.296875 -44.710938 54.640625 -45.421875 50.953125 -45.421875 L 33.046875 -45.421875 C 31.847656 -45.421875 31.25 -44.820312 31.25 -43.625 L 31.25 -19.046875 C 31.25 -17.847656 31.847656 -17.25 33.046875 -17.25 Z M 33.046875 -62.1875 L 49.640625 -62.1875 C 53.117188 -62.1875 55.671875 -62.914062 57.296875 -64.375 C 58.921875 -65.84375 59.734375 -68.257812 59.734375 -71.625 L 59.734375 -77.96875 C 59.734375 -81.332031 58.945312 -83.742188 57.375 -85.203125 C 55.800781 -86.671875 53.28125 -87.40625 49.8125 -87.40625 L 33.046875 -87.40625 C 31.847656 -87.40625 31.25 -86.8125 31.25 -85.625 L 31.25 -63.96875 C 31.25 -62.78125 31.847656 -62.1875 33.046875 -62.1875 Z M 10.578125 -3.421875 L 10.578125 -101.25 C 10.578125 -103.53125 11.71875 -104.671875 14 -104.671875 L 53.0625 -104.671875 C 61.632812 -104.671875 68.253906 -102.390625 72.921875 -97.828125 C 77.585938 -93.273438 79.921875 -86.765625 79.921875 -78.296875 L 79.921875 -71.625 C 79.921875 -62.394531 75.632812 -56.425781 67.0625 -53.71875 C 71.40625 -53.0625 74.878906 -51.296875 77.484375 -48.421875 C 80.085938 -45.546875 81.390625 -41.453125 81.390625 -36.140625 L 81.390625 -26.375 C 81.390625 -17.90625 79.054688 -11.390625 74.390625 -6.828125 C 69.722656 -2.273438 63.15625 0 54.6875 0 L 14 0 C 11.71875 0 10.578125 -1.140625 10.578125 -3.421875 Z M 10.578125 -3.421875 "/></g></g><g style="fill:#0b3f47;fill-opacity:1;"><g transform="translate(112.83636, 143.96206)"><path style="stroke:none" d="M 26.203125 0 L 12.375 0 C 10.09375 0 8.953125 -1.140625 8.953125 -3.421875 L 8.953125 -111.015625 C 8.953125 -113.296875 10.09375 -114.4375 12.375 -114.4375 L 26.203125 -114.4375 C 28.484375 -114.4375 29.625 -113.296875 29.625 -111.015625 L 29.625 -74.234375 L 30.28125 -74.234375 C 32.664062 -80.085938 37.984375 -83.015625 46.234375 -83.015625 L 51.4375 -83.015625 C 68.476562 -83.015625 77 -74.171875 77 -56.484375 L 77 -3.421875 C 77 -1.140625 75.804688 0 73.421875 0 L 59.734375 0 C 57.460938 0 56.328125 -1.140625 56.328125 -3.421875 L 56.328125 -55.515625 C 56.328125 -58.984375 55.59375 -61.445312 54.125 -62.90625 C 52.65625 -64.375 50.1875 -65.109375 46.71875 -65.109375 L 40.859375 -65.109375 C 33.367188 -65.109375 29.625 -60.984375 29.625 -52.734375 L 29.625 -3.421875 C 29.625 -1.140625 28.484375 0 26.203125 0 Z M 26.203125 0 "/></g></g><g style="fill:#0b3f47;fill-opacity:1;"><g transform="translate(197.964126, 143.96206)"><path style="stroke:none" d="M 22.46875 27.515625 L 12.046875 27.515625 C 9.878906 27.515625 8.796875 26.316406 8.796875 23.921875 L 8.796875 13.015625 C 8.796875 10.628906 9.878906 9.4375 12.046875 9.4375 L 15.46875 9.4375 C 22.300781 9.4375 26.9375 8.488281 29.375 6.59375 C 31.820312 4.695312 33.695312 1.035156 35 -4.390625 L 26.375 -4.390625 C 24.3125 -4.390625 22.953125 -5.53125 22.296875 -7.8125 L 3.25 -79.59375 C 2.601562 -81.875 3.421875 -83.015625 5.703125 -83.015625 L 20.1875 -83.015625 C 22.351562 -83.015625 23.707031 -81.875 24.25 -79.59375 L 38.25 -19.53125 L 38.90625 -19.53125 L 52.734375 -79.59375 C 53.171875 -81.875 54.53125 -83.015625 56.8125 -83.015625 L 70.484375 -83.015625 C 73.191406 -83.015625 74.273438 -81.820312 73.734375 -79.4375 L 53.875 0 C 51.488281 9.007812 47.800781 15.847656 42.8125 20.515625 C 37.820312 25.179688 31.039062 27.515625 22.46875 27.515625 Z M 22.46875 27.515625 "/></g></g><g style="fill:#0b3f47;fill-opacity:1;"><g transform="translate(274.627947, 143.96206)"><path style="stroke:none" d="M 38.09375 0 L 34.1875 0 C 25.613281 0 18.992188 -2.273438 14.328125 -6.828125 C 9.660156 -11.390625 7.328125 -17.957031 7.328125 -26.53125 L 7.328125 -56.484375 C 7.328125 -65.054688 9.660156 -71.617188 14.328125 -76.171875 C 18.992188 -80.734375 25.613281 -83.015625 34.1875 -83.015625 L 71.78125 -83.015625 C 74.175781 -83.015625 75.375 -81.875 75.375 -79.59375 L 75.375 -3.421875 C 75.375 -1.140625 74.175781 0 71.78125 0 L 58.109375 0 C 55.828125 0 54.6875 -1.140625 54.6875 -3.421875 L 54.6875 -8.796875 L 54.046875 -8.796875 C 52.847656 -5.859375 50.726562 -3.65625 47.6875 -2.1875 C 44.65625 -0.726562 41.457031 0 38.09375 0 Z M 54.6875 -30.28125 L 54.6875 -63.328125 C 54.6875 -64.515625 54.035156 -65.109375 52.734375 -65.109375 L 37.4375 -65.109375 C 33.96875 -65.109375 31.523438 -64.375 30.109375 -62.90625 C 28.703125 -61.445312 28 -58.984375 28 -55.515625 L 28 -27.515625 C 28 -24.035156 28.703125 -21.5625 30.109375 -20.09375 C 31.523438 -18.632812 33.96875 -17.90625 37.4375 -17.90625 L 43.46875 -17.90625 C 50.945312 -17.90625 54.6875 -22.03125 54.6875 -30.28125 Z M 54.6875 -30.28125 "/></g></g><g style="fill:#0b3f47;fill-opacity:1;"><g transform="translate(358.941876, 143.96206)"><path style="stroke:none" d="M 10.75 -65.109375 L 4.234375 -65.109375 C 2.929688 -65.109375 2.035156 -65.328125 1.546875 -65.765625 C 1.054688 -66.203125 0.8125 -67.070312 0.8125 -68.375 L 0.8125 -79.59375 C 0.8125 -81.875 1.953125 -83.015625 4.234375 -83.015625 L 10.75 -83.015625 C 11.9375 -83.015625 12.53125 -83.613281 12.53125 -84.8125 L 12.53125 -100.265625 C 12.53125 -102.546875 13.722656 -103.6875 16.109375 -103.6875 L 29.78125 -103.6875 C 32.0625 -103.6875 33.203125 -102.546875 33.203125 -100.265625 L 33.203125 -84.8125 C 33.203125 -83.613281 33.851562 -83.015625 35.15625 -83.015625 L 47.859375 -83.015625 C 50.140625 -83.015625 51.28125 -81.875 51.28125 -79.59375 L 51.28125 -68.375 C 51.28125 -67.175781 51.035156 -66.332031 50.546875 -65.84375 C 50.054688 -65.351562 49.160156 -65.109375 47.859375 -65.109375 L 35.15625 -65.109375 C 33.851562 -65.109375 33.203125 -64.515625 33.203125 -63.328125 L 33.203125 -27.34375 C 33.203125 -23.976562 33.960938 -21.5625 35.484375 -20.09375 C 37.003906 -18.632812 39.5 -17.90625 42.96875 -17.90625 L 49.484375 -17.90625 C 51.765625 -17.90625 52.90625 -16.765625 52.90625 -14.484375 L 52.90625 -3.25 C 52.90625 -2.0625 52.660156 -1.222656 52.171875 -0.734375 C 51.679688 -0.242188 50.785156 0 49.484375 0 L 39.5625 0 C 30.988281 0 24.335938 -2.273438 19.609375 -6.828125 C 14.890625 -11.390625 12.53125 -17.90625 12.53125 -26.375 L 12.53125 -63.328125 C 12.53125 -64.515625 11.9375 -65.109375 10.75 -65.109375 Z M 10.75 -65.109375 "/></g></g><g style="fill:#5170ff;fill-opacity:1;"><g transform="translate(439.809289, 143.96206)"><path style="stroke:none" d="M 27.828125 0 L 14 0 C 11.71875 0 10.578125 -1.140625 10.578125 -3.421875 L 10.578125 -101.25 C 10.578125 -103.53125 11.71875 -104.671875 14 -104.671875 L 53.71875 -104.671875 C 62.1875 -104.671875 68.75 -102.363281 73.40625 -97.75 C 78.070312 -93.132812 80.40625 -86.597656 80.40625 -78.140625 L 80.40625 -62.515625 C 80.40625 -54.046875 78.070312 -47.503906 73.40625 -42.890625 C 68.75 -38.273438 62.1875 -35.96875 53.71875 -35.96875 L 33.203125 -35.96875 C 31.898438 -35.96875 31.25 -35.375 31.25 -34.1875 L 31.25 -3.421875 C 31.25 -1.140625 30.109375 0 27.828125 0 Z M 33.046875 -54.046875 L 50.296875 -54.046875 C 53.773438 -54.046875 56.21875 -54.773438 57.625 -56.234375 C 59.03125 -57.703125 59.734375 -60.117188 59.734375 -63.484375 L 59.734375 -77.15625 C 59.734375 -80.632812 59.03125 -83.101562 57.625 -84.5625 C 56.21875 -86.03125 53.773438 -86.765625 50.296875 -86.765625 L 33.046875 -86.765625 C 31.847656 -86.765625 31.25 -86.164062 31.25 -84.96875 L 31.25 -55.828125 C 31.25 -54.640625 31.847656 -54.046875 33.046875 -54.046875 Z M 33.046875 -54.046875 "/></g></g><g style="fill:#5170ff;fill-opacity:1;"><g transform="translate(526.076437, 143.96206)"><path style="stroke:none" d="M 39.0625 -17.90625 L 50.625 -17.90625 C 54.09375 -17.90625 56.5625 -18.632812 58.03125 -20.09375 C 59.5 -21.5625 60.234375 -24.035156 60.234375 -27.515625 L 60.234375 -77.15625 C 60.234375 -80.632812 59.5 -83.101562 58.03125 -84.5625 C 56.5625 -86.03125 54.09375 -86.765625 50.625 -86.765625 L 39.0625 -86.765625 C 35.59375 -86.765625 33.148438 -86.03125 31.734375 -84.5625 C 30.328125 -83.101562 29.625 -80.632812 29.625 -77.15625 L 29.625 -27.515625 C 29.625 -24.035156 30.328125 -21.5625 31.734375 -20.09375 C 33.148438 -18.632812 35.59375 -17.90625 39.0625 -17.90625 Z M 54.046875 0 L 35.8125 0 C 27.238281 0 20.617188 -2.273438 15.953125 -6.828125 C 11.285156 -11.390625 8.953125 -17.957031 8.953125 -26.53125 L 8.953125 -78.140625 C 8.953125 -86.710938 11.285156 -93.273438 15.953125 -97.828125 C 20.617188 -102.390625 27.238281 -104.671875 35.8125 -104.671875 L 54.046875 -104.671875 C 62.617188 -104.671875 69.238281 -102.390625 73.90625 -97.828125 C 78.570312 -93.273438 80.90625 -86.710938 80.90625 -78.140625 L 80.90625 -26.53125 C 80.90625 -17.957031 78.570312 -11.390625 73.90625 -6.828125 C 69.238281 -2.273438 62.617188 0 54.046875 0 Z M 54.046875 0 "/></g></g><g style="fill:#5170ff;fill-opacity:1;"><g transform="translate(615.924481, 143.96206)"><path style="stroke:none" d="M 7.96875 -26.703125 L 7.96875 -29.953125 C 7.96875 -32.234375 9.109375 -33.375 11.390625 -33.375 L 25.234375 -33.375 C 27.515625 -33.375 28.65625 -32.234375 28.65625 -29.953125 L 28.65625 -28.65625 C 28.65625 -24.53125 29.46875 -21.707031 31.09375 -20.1875 C 32.71875 -18.664062 35.703125 -17.90625 40.046875 -17.90625 L 47.6875 -17.90625 C 51.925781 -17.90625 54.882812 -18.71875 56.5625 -20.34375 C 58.25 -21.976562 59.09375 -25.019531 59.09375 -29.46875 L 59.09375 -31.421875 C 59.09375 -34.566406 57.816406 -36.976562 55.265625 -38.65625 C 52.710938 -40.34375 49.535156 -41.347656 45.734375 -41.671875 C 41.941406 -41.992188 37.847656 -42.613281 33.453125 -43.53125 C 29.054688 -44.457031 24.957031 -45.65625 21.15625 -47.125 C 17.363281 -48.59375 14.191406 -51.46875 11.640625 -55.75 C 9.085938 -60.039062 7.8125 -65.550781 7.8125 -72.28125 L 7.8125 -77.96875 C 7.8125 -86.4375 10.195312 -93.003906 14.96875 -97.671875 C 19.75 -102.335938 26.367188 -104.671875 34.828125 -104.671875 L 51.109375 -104.671875 C 59.679688 -104.671875 66.351562 -102.335938 71.125 -97.671875 C 75.90625 -93.003906 78.296875 -86.4375 78.296875 -77.96875 L 78.296875 -74.875 C 78.296875 -72.601562 77.15625 -71.46875 74.875 -71.46875 L 61.046875 -71.46875 C 58.765625 -71.46875 57.625 -72.601562 57.625 -74.875 L 57.625 -75.859375 C 57.625 -80.085938 56.804688 -82.960938 55.171875 -84.484375 C 53.546875 -86.003906 50.566406 -86.765625 46.234375 -86.765625 L 39.875 -86.765625 C 35.425781 -86.765625 32.414062 -85.921875 30.84375 -84.234375 C 29.269531 -82.554688 28.484375 -79.273438 28.484375 -74.390625 L 28.484375 -71.296875 C 28.484375 -66.191406 32.929688 -63.265625 41.828125 -62.515625 C 51.054688 -61.753906 59.253906 -59.90625 66.421875 -56.96875 C 70.210938 -55.34375 73.382812 -52.441406 75.9375 -48.265625 C 78.488281 -44.085938 79.765625 -38.742188 79.765625 -32.234375 L 79.765625 -26.703125 C 79.765625 -18.234375 77.375 -11.664062 72.59375 -7 C 67.820312 -2.332031 61.203125 0 52.734375 0 L 35 0 C 26.53125 0 19.90625 -2.332031 15.125 -7 C 10.351562 -11.664062 7.96875 -18.234375 7.96875 -26.703125 Z M 7.96875 -26.703125 "/></g></g><g mask="url(#a5c2b6c3d1)" transform="matrix(1,0,0,1,439,30)"><g clip-path="url(#ade130b9a2)"><g clip-rule="nonzero" clip-path="url(#e06b13bae7)"><path style=" stroke:none;fill-rule:nonzero;fill:#ffffff;fill-opacity:1;" d="M 3.355469 0.570312 L 39.355469 0.570312 L 39.355469 6.570312 L 3.355469 6.570312 M 45.355469 0.570312 L 81.355469 0.570312 L 81.355469 6.570312 L 45.355469 6.570312 M 87.355469 0.570312 L 123.355469 0.570312 L 123.355469 6.570312 L 87.355469 6.570312 M 129.355469 0.570312 L 165.355469 0.570312 L 165.355469 6.570312 L 129.355469 6.570312 M 171.355469 0.570312 L 207.355469 0.570312 L 207.355469 6.570312 L 171.355469 6.570312 M 213.355469 0.570312 L 249.355469 0.570312 L 249.355469 6.570312 L 213.355469 6.570312 M 255.355469 0.570312 L 269.519531 0.570312 L 269.519531 6.570312 L 255.355469 6.570312 "/></g></g><mask id="a5c2b6c3d1"><g filter="url(#3fdef71849)"><rect x="0" width="750" y="0" height="225" style="fill:#000000;fill-opacity:0.95;stroke:none;"/></g></mask></g><g mask="url(#1b28a43f73)" transform="matrix(1,0,0,1,439,43)"><g clip-path="url(#7c1f18d7e7)"><g clip-rule="nonzero" clip-path="url(#098a16dca8)"><path style=" stroke:none;fill-rule:nonzero;fill:#ffffff;fill-opacity:1;" d="M 3.355469 0.246094 L 39.355469 0.246094 L 39.355469 6.246094 L 3.355469 6.246094 M 45.355469 0.246094 L 81.355469 0.246094 L 81.355469 6.246094 L 45.355469 6.246094 M 87.355469 0.246094 L 123.355469 0.246094 L 123.355469 6.246094 L 87.355469 6.246094 M 129.355469 0.246094 L 165.355469 0.246094 L 165.355469 6.246094 L 129.355469 6.246094 M 171.355469 0.246094 L 207.355469 0.246094 L 207.355469 6.246094 L 171.355469 6.246094 M 213.355469 0.246094 L 249.355469 0.246094 L 249.355469 6.246094 L 213.355469 6.246094 M 255.355469 0.246094 L 269.519531 0.246094 L 269.519531 6.246094 L 255.355469 6.246094 "/></g></g><mask id="1b28a43f73"><g filter="url(#3fdef71849)"><rect x="0" width="750" y="0" height="225" style="fill:#000000;fill-opacity:0.95;stroke:none;"/></g></mask></g><g mask="url(#49c3e295aa)" transform="matrix(1,0,0,1,439,54)"><g clip-path="url(#03edde70f1)"><g clip-rule="nonzero" clip-path="url(#be8700d5a8)"><path style=" stroke:none;fill-rule:nonzero;fill:#ffffff;fill-opacity:1;" d="M 3.355469 0.863281 L 39.355469 0.863281 L 39.355469 6.863281 L 3.355469 6.863281 M 45.355469 0.863281 L 81.355469 0.863281 L 81.355469 6.863281 L 45.355469 6.863281 M 87.355469 0.863281 L 123.355469 0.863281 L 123.355469 6.863281 L 87.355469 6.863281 M 129.355469 0.863281 L 165.355469 0.863281 L 165.355469 6.863281 L 129.355469 6.863281 M 171.355469 0.863281 L 207.355469 0.863281 L 207.355469 6.863281 L 171.355469 6.863281 M 213.355469 0.863281 L 249.355469 0.863281 L 249.355469 6.863281 L 213.355469 6.863281 M 255.355469 0.863281 L 269.519531 0.863281 L 269.519531 6.863281 L 255.355469 6.863281 "/></g></g><mask id="49c3e295aa"><g filter="url(#3fdef71849)"><rect x="0" width="750" y="0" height="225" style="fill:#000000;fill-opacity:0.95;stroke:none;"/></g></mask></g><g mask="url(#3fa0716f75)" transform="matrix(1,0,0,1,439,84)"><g clip-path="url(#3f44a1f77c)"><g clip-rule="nonzero" clip-path="url(#0a86daf33b)"><path style=" stroke:none;fill-rule:nonzero;fill:#ffffff;fill-opacity:1;" d="M 269.511719 6.960938 L 233.511719 6.960938 L 233.511719 0.960938 L 269.511719 0.960938 M 227.511719 6.960938 L 191.511719 6.960938 L 191.511719 0.960938 L 227.511719 0.960938 M 185.511719 6.960938 L 149.511719 6.960938 L 149.511719 0.960938 L 185.511719 0.960938 M 143.511719 6.960938 L 107.511719 6.960938 L 107.511719 0.960938 L 143.511719 0.960938 M 101.511719 6.960938 L 65.511719 6.960938 L 65.511719 0.960938 L 101.511719 0.960938 M 59.511719 6.960938 L 23.511719 6.960938 L 23.511719 0.960938 L 59.511719 0.960938 M 17.511719 6.960938 L 3.351562 6.960938 L 3.351562 0.960938 L 17.511719 0.960938 "/></g></g><mask id="3fa0716f75"><g filter="url(#3fdef71849)"><rect x="0" width="750" y="0" height="225" style="fill:#000000;fill-opacity:0.95;stroke:none;"/></g></mask></g><g mask="url(#d60583f401)" transform="matrix(1,0,0,1,439,72)"><g clip-path="url(#3527676eb8)"><g clip-rule="nonzero" clip-path="url(#6dddd9d6c0)"><path style=" stroke:none;fill-rule:nonzero;fill:#ffffff;fill-opacity:1;" d="M 269.511719 6.285156 L 233.511719 6.285156 L 233.511719 0.285156 L 269.511719 0.285156 M 227.511719 6.285156 L 191.511719 6.285156 L 191.511719 0.285156 L 227.511719 0.285156 M 185.511719 6.285156 L 149.511719 6.285156 L 149.511719 0.285156 L 185.511719 0.285156 M 143.511719 6.285156 L 107.511719 6.285156 L 107.511719 0.285156 L 143.511719 0.285156 M 101.511719 6.285156 L 65.511719 6.285156 L 65.511719 0.285156 L 101.511719 0.285156 M 59.511719 6.285156 L 23.511719 6.285156 L 23.511719 0.285156 L 59.511719 0.285156 M 17.511719 6.285156 L 3.351562 6.285156 L 3.351562 0.285156 L 17.511719 0.285156 "/></g></g><mask id="d60583f401"><g filter="url(#3fdef71849)"><rect x="0" width="750" y="0" height="225" style="fill:#000000;fill-opacity:0.95;stroke:none;"/></g></mask></g><g mask="url(#c82f456e51)" transform="matrix(1,0,0,1,439,96)"><g clip-path="url(#fceffa8bec)"><g clip-rule="nonzero" clip-path="url(#323f46f8aa)"><path style=" stroke:none;fill-rule:nonzero;fill:#ffffff;fill-opacity:1;" d="M 3.355469 0.699219 L 39.355469 0.699219 L 39.355469 6.699219 L 3.355469 6.699219 M 45.355469 0.699219 L 81.355469 0.699219 L 81.355469 6.699219 L 45.355469 6.699219 M 87.355469 0.699219 L 123.355469 0.699219 L 123.355469 6.699219 L 87.355469 6.699219 M 129.355469 0.699219 L 165.355469 0.699219 L 165.355469 6.699219 L 129.355469 6.699219 M 171.355469 0.699219 L 207.355469 0.699219 L 207.355469 6.699219 L 171.355469 6.699219 M 213.355469 0.699219 L 249.355469 0.699219 L 249.355469 6.699219 L 213.355469 6.699219 M 255.355469 0.699219 L 269.519531 0.699219 L 269.519531 6.699219 L 255.355469 6.699219 "/></g></g><mask id="c82f456e51"><g filter="url(#3fdef71849)"><rect x="0" width="750" y="0" height="225" style="fill:#000000;fill-opacity:0.95;stroke:none;"/></g></mask></g><g mask="url(#311d060969)" transform="matrix(1,0,0,1,439,109)"><g clip-path="url(#aa584158b4)"><g clip-rule="nonzero" clip-path="url(#73e79c6bbd)"><path style=" stroke:none;fill-rule:nonzero;fill:#ffffff;fill-opacity:1;" d="M 3.355469 0.375 L 39.355469 0.375 L 39.355469 6.375 L 3.355469 6.375 M 45.355469 0.375 L 81.355469 0.375 L 81.355469 6.375 L 45.355469 6.375 M 87.355469 0.375 L 123.355469 0.375 L 123.355469 6.375 L 87.355469 6.375 M 129.355469 0.375 L 165.355469 0.375 L 165.355469 6.375 L 129.355469 6.375 M 171.355469 0.375 L 207.355469 0.375 L 207.355469 6.375 L 171.355469 6.375 M 213.355469 0.375 L 249.355469 0.375 L 249.355469 6.375 L 213.355469 6.375 M 255.355469 0.375 L 269.519531 0.375 L 269.519531 6.375 L 255.355469 6.375 "/></g></g><mask id="311d060969"><g filter="url(#3fdef71849)"><rect x="0" width="750" y="0" height="225" style="fill:#000000;fill-opacity:0.95;stroke:none;"/></g></mask></g><g mask="url(#53c789ffb7)" transform="matrix(1,0,0,1,439,120)"><g clip-path="url(#1ec5143d0f)"><g clip-rule="nonzero" clip-path="url(#2f08aaa52c)"><path style=" stroke:none;fill-rule:nonzero;fill:#ffffff;fill-opacity:1;" d="M 3.355469 0.992188 L 39.355469 0.992188 L 39.355469 6.992188 L 3.355469 6.992188 M 45.355469 0.992188 L 81.355469 0.992188 L 81.355469 6.992188 L 45.355469 6.992188 M 87.355469 0.992188 L 123.355469 0.992188 L 123.355469 6.992188 L 87.355469 6.992188 M 129.355469 0.992188 L 165.355469 0.992188 L 165.355469 6.992188 L 129.355469 6.992188 M 171.355469 0.992188 L 207.355469 0.992188 L 207.355469 6.992188 L 171.355469 6.992188 M 213.355469 0.992188 L 249.355469 0.992188 L 249.355469 6.992188 L 213.355469 6.992188 M 255.355469 0.992188 L 269.519531 0.992188 L 269.519531 6.992188 L 255.355469 6.992188 "/></g></g><mask id="53c789ffb7"><g filter="url(#3fdef71849)"><rect x="0" width="750" y="0" height="225" style="fill:#000000;fill-opacity:0.95;stroke:none;"/></g></mask></g><g mask="url(#fcf656f329)" transform="matrix(1,0,0,1,439,148)"><g clip-path="url(#99af057884)"><g clip-rule="nonzero" clip-path="url(#0761281a8a)"><path style=" stroke:none;fill-rule:nonzero;fill:#ffffff;fill-opacity:1;" d="M 269.511719 6.664062 L 233.511719 6.664062 L 233.511719 0.664062 L 269.511719 0.664062 M 227.511719 6.664062 L 191.511719 6.664062 L 191.511719 0.664062 L 227.511719 0.664062 M 185.511719 6.664062 L 149.511719 6.664062 L 149.511719 0.664062 L 185.511719 0.664062 M 143.511719 6.664062 L 107.511719 6.664062 L 107.511719 0.664062 L 143.511719 0.664062 M 101.511719 6.664062 L 65.511719 6.664062 L 65.511719 0.664062 L 101.511719 0.664062 M 59.511719 6.664062 L 23.511719 6.664062 L 23.511719 0.664062 L 59.511719 0.664062 M 17.511719 6.664062 L 3.351562 6.664062 L 3.351562 0.664062 L 17.511719 0.664062 "/></g></g><mask id="fcf656f329"><g filter="url(#3fdef71849)"><rect x="0" width="750" y="0" height="225" style="fill:#000000;fill-opacity:0.95;stroke:none;"/></g></mask></g><g mask="url(#13d5b708d6)" transform="matrix(1,0,0,1,439,135)"><g clip-path="url(#652aad6bac)"><g clip-rule="nonzero" clip-path="url(#80136fc91c)"><path style=" stroke:none;fill-rule:nonzero;fill:#ffffff;fill-opacity:1;" d="M 269.511719 6.988281 L 233.511719 6.988281 L 233.511719 0.988281 L 269.511719 0.988281 M 227.511719 6.988281 L 191.511719 6.988281 L 191.511719 0.988281 L 227.511719 0.988281 M 185.511719 6.988281 L 149.511719 6.988281 L 149.511719 0.988281 L 185.511719 0.988281 M 143.511719 6.988281 L 107.511719 6.988281 L 107.511719 0.988281 L 143.511719 0.988281 M 101.511719 6.988281 L 65.511719 6.988281 L 65.511719 0.988281 L 101.511719 0.988281 M 59.511719 6.988281 L 23.511719 6.988281 L 23.511719 0.988281 L 59.511719 0.988281 M 17.511719 6.988281 L 3.351562 6.988281 L 3.351562 0.988281 L 17.511719 0.988281 "/></g></g><mask id="13d5b708d6"><g filter="url(#3fdef71849)"><rect x="0" width="750" y="0" height="225" style="fill:#000000;fill-opacity:0.95;stroke:none;"/></g></mask></g><g style="fill:#0b3f47;fill-opacity:1;"><g transform="translate(254.993659, 203.225561)"><path style="stroke:none" d="M 5.21875 0 L 2.625 0 C 2.195312 0 1.984375 -0.210938 1.984375 -0.640625 L 1.984375 -18.96875 C 1.984375 -19.394531 2.195312 -19.609375 2.625 -19.609375 L 9.875 -19.609375 C 11.46875 -19.609375 12.707031 -19.171875 13.59375 -18.296875 C 14.488281 -17.421875 14.9375 -16.191406 14.9375 -14.609375 L 14.9375 -12.234375 C 14.9375 -9.929688 14.035156 -8.40625 12.234375 -7.65625 L 12.234375 -7.53125 L 15.5 -0.734375 C 15.675781 -0.242188 15.5 0 14.96875 0 L 12.5 0 C 12.132812 0 11.867188 -0.0390625 11.703125 -0.125 C 11.546875 -0.207031 11.414062 -0.378906 11.3125 -0.640625 L 8.265625 -7.234375 L 6.21875 -7.234375 C 5.976562 -7.234375 5.859375 -7.117188 5.859375 -6.890625 L 5.859375 -0.640625 C 5.859375 -0.210938 5.644531 0 5.21875 0 Z M 6.1875 -10.34375 L 9.1875 -10.34375 C 9.832031 -10.34375 10.304688 -10.476562 10.609375 -10.75 C 10.921875 -11.019531 11.078125 -11.460938 11.078125 -12.078125 L 11.078125 -14.453125 C 11.078125 -15.085938 10.921875 -15.546875 10.609375 -15.828125 C 10.304688 -16.109375 9.832031 -16.25 9.1875 -16.25 L 6.1875 -16.25 C 5.96875 -16.25 5.859375 -16.140625 5.859375 -15.921875 L 5.859375 -10.671875 C 5.859375 -10.453125 5.96875 -10.34375 6.1875 -10.34375 Z M 6.1875 -10.34375 "/></g></g><g style="fill:#0b3f47;fill-opacity:1;"><g transform="translate(271.67625, 203.225561)"><path style="stroke:none" d="M 13.140625 0 L 6.40625 0 C 4.800781 0 3.5625 -0.425781 2.6875 -1.28125 C 1.8125 -2.132812 1.375 -3.363281 1.375 -4.96875 L 1.375 -10.578125 C 1.375 -12.191406 1.8125 -13.425781 2.6875 -14.28125 C 3.5625 -15.132812 4.800781 -15.5625 6.40625 -15.5625 L 8.8125 -15.5625 C 10.414062 -15.5625 11.65625 -15.132812 12.53125 -14.28125 C 13.40625 -13.425781 13.84375 -12.191406 13.84375 -10.578125 L 13.84375 -6.703125 C 13.84375 -6.273438 13.628906 -6.0625 13.203125 -6.0625 L 5.546875 -6.0625 C 5.304688 -6.0625 5.1875 -5.953125 5.1875 -5.734375 L 5.1875 -5.0625 C 5.1875 -4.4375 5.320312 -3.984375 5.59375 -3.703125 C 5.875 -3.429688 6.335938 -3.296875 6.984375 -3.296875 L 13.140625 -3.296875 C 13.566406 -3.296875 13.78125 -3.070312 13.78125 -2.625 L 13.78125 -0.609375 C 13.78125 -0.390625 13.734375 -0.234375 13.640625 -0.140625 C 13.554688 -0.046875 13.390625 0 13.140625 0 Z M 5.546875 -8.65625 L 9.703125 -8.65625 C 9.921875 -8.65625 10.03125 -8.769531 10.03125 -9 L 10.03125 -10.46875 C 10.03125 -11.113281 9.894531 -11.566406 9.625 -11.828125 C 9.363281 -12.097656 8.910156 -12.234375 8.265625 -12.234375 L 6.984375 -12.234375 C 6.335938 -12.234375 5.878906 -12.097656 5.609375 -11.828125 C 5.347656 -11.566406 5.21875 -11.113281 5.21875 -10.46875 L 5.21875 -9 C 5.21875 -8.769531 5.328125 -8.65625 5.546875 -8.65625 Z M 5.546875 -8.65625 "/></g></g><g style="fill:#0b3f47;fill-opacity:1;"><g transform="translate(286.742413, 203.225561)"><path style="stroke:none" d="M 2.015625 -12.203125 L 0.796875 -12.203125 C 0.546875 -12.203125 0.375 -12.238281 0.28125 -12.3125 C 0.195312 -12.394531 0.15625 -12.5625 0.15625 -12.8125 L 0.15625 -14.921875 C 0.15625 -15.347656 0.367188 -15.5625 0.796875 -15.5625 L 2.015625 -15.5625 C 2.234375 -15.5625 2.34375 -15.671875 2.34375 -15.890625 L 2.34375 -18.78125 C 2.34375 -19.207031 2.566406 -19.421875 3.015625 -19.421875 L 5.578125 -19.421875 C 6.003906 -19.421875 6.21875 -19.207031 6.21875 -18.78125 L 6.21875 -15.890625 C 6.21875 -15.671875 6.34375 -15.5625 6.59375 -15.5625 L 8.96875 -15.5625 C 9.394531 -15.5625 9.609375 -15.347656 9.609375 -14.921875 L 9.609375 -12.8125 C 9.609375 -12.582031 9.5625 -12.421875 9.46875 -12.328125 C 9.375 -12.242188 9.207031 -12.203125 8.96875 -12.203125 L 6.59375 -12.203125 C 6.34375 -12.203125 6.21875 -12.085938 6.21875 -11.859375 L 6.21875 -5.125 C 6.21875 -4.488281 6.359375 -4.035156 6.640625 -3.765625 C 6.929688 -3.492188 7.398438 -3.359375 8.046875 -3.359375 L 9.265625 -3.359375 C 9.691406 -3.359375 9.90625 -3.144531 9.90625 -2.71875 L 9.90625 -0.609375 C 9.90625 -0.390625 9.859375 -0.234375 9.765625 -0.140625 C 9.679688 -0.046875 9.515625 0 9.265625 0 L 7.40625 0 C 5.800781 0 4.554688 -0.425781 3.671875 -1.28125 C 2.785156 -2.132812 2.34375 -3.351562 2.34375 -4.9375 L 2.34375 -11.859375 C 2.34375 -12.085938 2.234375 -12.203125 2.015625 -12.203125 Z M 2.015625 -12.203125 "/></g></g><g style="fill:#0b3f47;fill-opacity:1;"><g transform="translate(297.508315, 203.225561)"><path style="stroke:none" d="M 7.140625 0 L 6.40625 0 C 4.800781 0 3.5625 -0.425781 2.6875 -1.28125 C 1.8125 -2.132812 1.375 -3.363281 1.375 -4.96875 L 1.375 -10.578125 C 1.375 -12.191406 1.8125 -13.425781 2.6875 -14.28125 C 3.5625 -15.132812 4.800781 -15.5625 6.40625 -15.5625 L 13.453125 -15.5625 C 13.898438 -15.5625 14.125 -15.347656 14.125 -14.921875 L 14.125 -0.640625 C 14.125 -0.210938 13.898438 0 13.453125 0 L 10.890625 0 C 10.460938 0 10.25 -0.210938 10.25 -0.640625 L 10.25 -1.640625 L 10.125 -1.640625 C 9.90625 -1.097656 9.507812 -0.6875 8.9375 -0.40625 C 8.363281 -0.132812 7.765625 0 7.140625 0 Z M 10.25 -5.671875 L 10.25 -11.859375 C 10.25 -12.085938 10.125 -12.203125 9.875 -12.203125 L 7.015625 -12.203125 C 6.359375 -12.203125 5.898438 -12.0625 5.640625 -11.78125 C 5.378906 -11.507812 5.25 -11.050781 5.25 -10.40625 L 5.25 -5.15625 C 5.25 -4.5 5.378906 -4.035156 5.640625 -3.765625 C 5.898438 -3.492188 6.359375 -3.359375 7.015625 -3.359375 L 8.140625 -3.359375 C 9.546875 -3.359375 10.25 -4.128906 10.25 -5.671875 Z M 10.25 -5.671875 "/></g></g><g style="fill:#0b3f47;fill-opacity:1;"><g transform="translate(313.30644, 203.225561)"><path style="stroke:none" d="M 1.828125 -18.171875 L 1.828125 -20.828125 C 1.828125 -21.234375 2.03125 -21.4375 2.4375 -21.4375 L 5.09375 -21.4375 C 5.5 -21.4375 5.703125 -21.242188 5.703125 -20.859375 L 5.703125 -18.171875 C 5.703125 -17.765625 5.5 -17.5625 5.09375 -17.5625 L 2.4375 -17.5625 C 2.03125 -17.5625 1.828125 -17.765625 1.828125 -18.171875 Z M 1.828125 -0.640625 L 1.828125 -14.921875 C 1.828125 -15.347656 2.03125 -15.5625 2.4375 -15.5625 L 5.0625 -15.5625 C 5.488281 -15.5625 5.703125 -15.347656 5.703125 -14.921875 L 5.703125 -0.640625 C 5.703125 -0.378906 5.65625 -0.207031 5.5625 -0.125 C 5.46875 -0.0390625 5.3125 0 5.09375 0 L 2.46875 0 C 2.039062 0 1.828125 -0.210938 1.828125 -0.640625 Z M 1.828125 -0.640625 "/></g></g><g style="fill:#0b3f47;fill-opacity:1;"><g transform="translate(320.839533, 203.225561)"><path style="stroke:none" d="M 5.0625 0 L 2.46875 0 C 2.039062 0 1.828125 -0.210938 1.828125 -0.640625 L 1.828125 -20.796875 C 1.828125 -21.222656 2.039062 -21.4375 2.46875 -21.4375 L 5.0625 -21.4375 C 5.488281 -21.4375 5.703125 -21.222656 5.703125 -20.796875 L 5.703125 -0.640625 C 5.703125 -0.210938 5.488281 0 5.0625 0 Z M 5.0625 0 "/></g></g><g style="fill:#0b3f47;fill-opacity:1;"><g transform="translate(328.372626, 203.225561)"><path style="stroke:none" d=""/></g></g><g style="fill:#0b3f47;fill-opacity:1;"><g transform="translate(335.082264, 203.225561)"><path style="stroke:none" d="M 5.21875 0 L 2.625 0 C 2.195312 0 1.984375 -0.210938 1.984375 -0.640625 L 1.984375 -18.96875 C 1.984375 -19.394531 2.195312 -19.609375 2.625 -19.609375 L 10.0625 -19.609375 C 11.644531 -19.609375 12.875 -19.175781 13.75 -18.3125 C 14.625 -17.445312 15.0625 -16.222656 15.0625 -14.640625 L 15.0625 -11.71875 C 15.0625 -10.125 14.625 -8.894531 13.75 -8.03125 C 12.875 -7.164062 11.644531 -6.734375 10.0625 -6.734375 L 6.21875 -6.734375 C 5.976562 -6.734375 5.859375 -6.625 5.859375 -6.40625 L 5.859375 -0.640625 C 5.859375 -0.210938 5.644531 0 5.21875 0 Z M 6.1875 -10.125 L 9.421875 -10.125 C 10.078125 -10.125 10.535156 -10.257812 10.796875 -10.53125 C 11.054688 -10.8125 11.1875 -11.265625 11.1875 -11.890625 L 11.1875 -14.453125 C 11.1875 -15.109375 11.054688 -15.570312 10.796875 -15.84375 C 10.535156 -16.113281 10.078125 -16.25 9.421875 -16.25 L 6.1875 -16.25 C 5.96875 -16.25 5.859375 -16.140625 5.859375 -15.921875 L 5.859375 -10.46875 C 5.859375 -10.238281 5.96875 -10.125 6.1875 -10.125 Z M 6.1875 -10.125 "/></g></g><g style="fill:#0b3f47;fill-opacity:1;"><g transform="translate(351.246382, 203.225561)"><path style="stroke:none" d="M 9.125 0 L 6.40625 0 C 4.800781 0 3.5625 -0.425781 2.6875 -1.28125 C 1.8125 -2.132812 1.375 -3.363281 1.375 -4.96875 L 1.375 -10.578125 C 1.375 -12.191406 1.8125 -13.425781 2.6875 -14.28125 C 3.5625 -15.132812 4.800781 -15.5625 6.40625 -15.5625 L 9.125 -15.5625 C 10.707031 -15.5625 11.941406 -15.128906 12.828125 -14.265625 C 13.710938 -13.398438 14.15625 -12.171875 14.15625 -10.578125 L 14.15625 -4.96875 C 14.15625 -3.382812 13.710938 -2.160156 12.828125 -1.296875 C 11.941406 -0.429688 10.707031 0 9.125 0 Z M 6.984375 -3.328125 L 8.546875 -3.328125 C 9.191406 -3.328125 9.648438 -3.457031 9.921875 -3.71875 C 10.203125 -3.988281 10.34375 -4.445312 10.34375 -5.09375 L 10.34375 -10.46875 C 10.34375 -11.113281 10.203125 -11.566406 9.921875 -11.828125 C 9.648438 -12.097656 9.191406 -12.234375 8.546875 -12.234375 L 6.984375 -12.234375 C 6.335938 -12.234375 5.878906 -12.097656 5.609375 -11.828125 C 5.347656 -11.566406 5.21875 -11.113281 5.21875 -10.46875 L 5.21875 -5.09375 C 5.21875 -4.445312 5.347656 -3.988281 5.609375 -3.71875 C 5.878906 -3.457031 6.335938 -3.328125 6.984375 -3.328125 Z M 6.984375 -3.328125 "/></g></g><g style="fill:#0b3f47;fill-opacity:1;"><g transform="translate(366.77003, 203.225561)"><path style="stroke:none" d="M 1.828125 -18.171875 L 1.828125 -20.828125 C 1.828125 -21.234375 2.03125 -21.4375 2.4375 -21.4375 L 5.09375 -21.4375 C 5.5 -21.4375 5.703125 -21.242188 5.703125 -20.859375 L 5.703125 -18.171875 C 5.703125 -17.765625 5.5 -17.5625 5.09375 -17.5625 L 2.4375 -17.5625 C 2.03125 -17.5625 1.828125 -17.765625 1.828125 -18.171875 Z M 1.828125 -0.640625 L 1.828125 -14.921875 C 1.828125 -15.347656 2.03125 -15.5625 2.4375 -15.5625 L 5.0625 -15.5625 C 5.488281 -15.5625 5.703125 -15.347656 5.703125 -14.921875 L 5.703125 -0.640625 C 5.703125 -0.378906 5.65625 -0.207031 5.5625 -0.125 C 5.46875 -0.0390625 5.3125 0 5.09375 0 L 2.46875 0 C 2.039062 0 1.828125 -0.210938 1.828125 -0.640625 Z M 1.828125 -0.640625 "/></g></g><g style="fill:#0b3f47;fill-opacity:1;"><g transform="translate(374.303123, 203.225561)"><path style="stroke:none" d="M 4.90625 0 L 2.3125 0 C 1.882812 0 1.671875 -0.210938 1.671875 -0.640625 L 1.671875 -14.921875 C 1.671875 -15.347656 1.882812 -15.5625 2.3125 -15.5625 L 4.90625 -15.5625 C 5.332031 -15.5625 5.546875 -15.347656 5.546875 -14.921875 L 5.546875 -13.90625 L 5.671875 -13.90625 C 6.117188 -15.007812 7.113281 -15.5625 8.65625 -15.5625 L 9.640625 -15.5625 C 12.828125 -15.5625 14.421875 -13.898438 14.421875 -10.578125 L 14.421875 -0.640625 C 14.421875 -0.210938 14.195312 0 13.75 0 L 11.1875 0 C 10.757812 0 10.546875 -0.210938 10.546875 -0.640625 L 10.546875 -10.40625 C 10.546875 -11.050781 10.410156 -11.507812 10.140625 -11.78125 C 9.867188 -12.0625 9.40625 -12.203125 8.75 -12.203125 L 7.65625 -12.203125 C 6.25 -12.203125 5.546875 -11.425781 5.546875 -9.875 L 5.546875 -0.640625 C 5.546875 -0.210938 5.332031 0 4.90625 0 Z M 4.90625 0 "/></g></g><g style="fill:#0b3f47;fill-opacity:1;"><g transform="translate(390.25375, 203.225561)"><path style="stroke:none" d="M 2.015625 -12.203125 L 0.796875 -12.203125 C 0.546875 -12.203125 0.375 -12.238281 0.28125 -12.3125 C 0.195312 -12.394531 0.15625 -12.5625 0.15625 -12.8125 L 0.15625 -14.921875 C 0.15625 -15.347656 0.367188 -15.5625 0.796875 -15.5625 L 2.015625 -15.5625 C 2.234375 -15.5625 2.34375 -15.671875 2.34375 -15.890625 L 2.34375 -18.78125 C 2.34375 -19.207031 2.566406 -19.421875 3.015625 -19.421875 L 5.578125 -19.421875 C 6.003906 -19.421875 6.21875 -19.207031 6.21875 -18.78125 L 6.21875 -15.890625 C 6.21875 -15.671875 6.34375 -15.5625 6.59375 -15.5625 L 8.96875 -15.5625 C 9.394531 -15.5625 9.609375 -15.347656 9.609375 -14.921875 L 9.609375 -12.8125 C 9.609375 -12.582031 9.5625 -12.421875 9.46875 -12.328125 C 9.375 -12.242188 9.207031 -12.203125 8.96875 -12.203125 L 6.59375 -12.203125 C 6.34375 -12.203125 6.21875 -12.085938 6.21875 -11.859375 L 6.21875 -5.125 C 6.21875 -4.488281 6.359375 -4.035156 6.640625 -3.765625 C 6.929688 -3.492188 7.398438 -3.359375 8.046875 -3.359375 L 9.265625 -3.359375 C 9.691406 -3.359375 9.90625 -3.144531 9.90625 -2.71875 L 9.90625 -0.609375 C 9.90625 -0.390625 9.859375 -0.234375 9.765625 -0.140625 C 9.679688 -0.046875 9.515625 0 9.265625 0 L 7.40625 0 C 5.800781 0 4.554688 -0.425781 3.671875 -1.28125 C 2.785156 -2.132812 2.34375 -3.351562 2.34375 -4.9375 L 2.34375 -11.859375 C 2.34375 -12.085938 2.234375 -12.203125 2.015625 -12.203125 Z M 2.015625 -12.203125 "/></g></g><g style="fill:#0b3f47;fill-opacity:1;"><g transform="translate(401.019653, 203.225561)"><path style="stroke:none" d=""/></g></g><g style="fill:#0b3f47;fill-opacity:1;"><g transform="translate(407.729291, 203.225561)"><path style="stroke:none" d="M 9.125 0 L 6.40625 0 C 4.800781 0 3.5625 -0.425781 2.6875 -1.28125 C 1.8125 -2.132812 1.375 -3.363281 1.375 -4.96875 L 1.375 -10.578125 C 1.375 -12.191406 1.8125 -13.425781 2.6875 -14.28125 C 3.5625 -15.132812 4.800781 -15.5625 6.40625 -15.5625 L 9.125 -15.5625 C 10.707031 -15.5625 11.941406 -15.128906 12.828125 -14.265625 C 13.710938 -13.398438 14.15625 -12.171875 14.15625 -10.578125 L 14.15625 -4.96875 C 14.15625 -3.382812 13.710938 -2.160156 12.828125 -1.296875 C 11.941406 -0.429688 10.707031 0 9.125 0 Z M 6.984375 -3.328125 L 8.546875 -3.328125 C 9.191406 -3.328125 9.648438 -3.457031 9.921875 -3.71875 C 10.203125 -3.988281 10.34375 -4.445312 10.34375 -5.09375 L 10.34375 -10.46875 C 10.34375 -11.113281 10.203125 -11.566406 9.921875 -11.828125 C 9.648438 -12.097656 9.191406 -12.234375 8.546875 -12.234375 L 6.984375 -12.234375 C 6.335938 -12.234375 5.878906 -12.097656 5.609375 -11.828125 C 5.347656 -11.566406 5.21875 -11.113281 5.21875 -10.46875 L 5.21875 -5.09375 C 5.21875 -4.445312 5.347656 -3.988281 5.609375 -3.71875 C 5.878906 -3.457031 6.335938 -3.328125 6.984375 -3.328125 Z M 6.984375 -3.328125 "/></g></g><g style="fill:#0b3f47;fill-opacity:1;"><g transform="translate(423.252939, 203.225561)"><path style="stroke:none" d="M 7.3125 -15.5625 L 9.765625 -15.5625 C 10.003906 -15.5625 10.171875 -15.515625 10.265625 -15.421875 C 10.359375 -15.328125 10.40625 -15.164062 10.40625 -14.9375 L 10.40625 -12.84375 C 10.40625 -12.414062 10.191406 -12.203125 9.765625 -12.203125 L 7.3125 -12.203125 C 7.09375 -12.203125 6.984375 -12.085938 6.984375 -11.859375 L 6.984375 -0.640625 C 6.984375 -0.210938 6.757812 0 6.3125 0 L 3.75 0 C 3.320312 0 3.109375 -0.210938 3.109375 -0.640625 L 3.109375 -11.859375 C 3.109375 -12.085938 2.988281 -12.203125 2.75 -12.203125 L 1.34375 -12.203125 C 0.914062 -12.203125 0.703125 -12.414062 0.703125 -12.84375 L 0.703125 -14.9375 C 0.703125 -15.1875 0.742188 -15.351562 0.828125 -15.4375 C 0.921875 -15.519531 1.09375 -15.5625 1.34375 -15.5625 L 2.75 -15.5625 C 2.988281 -15.5625 3.109375 -15.671875 3.109375 -15.890625 L 3.109375 -16.46875 C 3.109375 -18.070312 3.53125 -19.300781 4.375 -20.15625 C 5.21875 -21.007812 6.441406 -21.4375 8.046875 -21.4375 L 9.796875 -21.4375 C 10.035156 -21.4375 10.195312 -21.390625 10.28125 -21.296875 C 10.363281 -21.210938 10.40625 -21.054688 10.40625 -20.828125 L 10.40625 -18.734375 C 10.40625 -18.304688 10.203125 -18.09375 9.796875 -18.09375 L 8.65625 -18.09375 C 8.007812 -18.09375 7.566406 -17.953125 7.328125 -17.671875 C 7.097656 -17.398438 6.984375 -16.9375 6.984375 -16.28125 L 6.984375 -15.890625 C 6.984375 -15.671875 7.09375 -15.5625 7.3125 -15.5625 Z M 7.3125 -15.5625 "/></g></g><g style="fill:#0b3f47;fill-opacity:1;"><g transform="translate(434.049347, 203.225561)"><path style="stroke:none" d=""/></g></g><g style="fill:#0b3f47;fill-opacity:1;"><g transform="translate(440.758984, 203.225561)"><path style="stroke:none" d="M 1.5 -5 L 1.5 -5.609375 C 1.5 -6.035156 1.710938 -6.25 2.140625 -6.25 L 4.734375 -6.25 C 5.160156 -6.25 5.375 -6.035156 5.375 -5.609375 L 5.375 -5.375 C 5.375 -4.59375 5.523438 -4.0625 5.828125 -3.78125 C 6.128906 -3.5 6.6875 -3.359375 7.5 -3.359375 L 8.9375 -3.359375 C 9.726562 -3.359375 10.28125 -3.507812 10.59375 -3.8125 C 10.914062 -4.113281 11.078125 -4.679688 11.078125 -5.515625 L 11.078125 -5.890625 C 11.078125 -6.472656 10.835938 -6.921875 10.359375 -7.234375 C 9.878906 -7.554688 9.28125 -7.75 8.5625 -7.8125 C 7.851562 -7.875 7.085938 -7.988281 6.265625 -8.15625 C 5.441406 -8.332031 4.671875 -8.554688 3.953125 -8.828125 C 3.242188 -9.097656 2.648438 -9.632812 2.171875 -10.4375 C 1.703125 -11.25 1.46875 -12.285156 1.46875 -13.546875 L 1.46875 -14.609375 C 1.46875 -16.191406 1.910156 -17.421875 2.796875 -18.296875 C 3.691406 -19.171875 4.9375 -19.609375 6.53125 -19.609375 L 9.578125 -19.609375 C 11.179688 -19.609375 12.429688 -19.171875 13.328125 -18.296875 C 14.222656 -17.421875 14.671875 -16.191406 14.671875 -14.609375 L 14.671875 -14.03125 C 14.671875 -13.601562 14.457031 -13.390625 14.03125 -13.390625 L 11.4375 -13.390625 C 11.007812 -13.390625 10.796875 -13.601562 10.796875 -14.03125 L 10.796875 -14.21875 C 10.796875 -15.007812 10.640625 -15.546875 10.328125 -15.828125 C 10.023438 -16.109375 9.46875 -16.25 8.65625 -16.25 L 7.46875 -16.25 C 6.632812 -16.25 6.070312 -16.09375 5.78125 -15.78125 C 5.488281 -15.46875 5.34375 -14.851562 5.34375 -13.9375 L 5.34375 -13.359375 C 5.34375 -12.398438 6.175781 -11.851562 7.84375 -11.71875 C 9.570312 -11.570312 11.101562 -11.222656 12.4375 -10.671875 C 13.15625 -10.367188 13.75 -9.828125 14.21875 -9.046875 C 14.695312 -8.265625 14.9375 -7.257812 14.9375 -6.03125 L 14.9375 -5 C 14.9375 -3.414062 14.488281 -2.1875 13.59375 -1.3125 C 12.707031 -0.4375 11.46875 0 9.875 0 L 6.5625 0 C 4.96875 0 3.722656 -0.4375 2.828125 -1.3125 C 1.941406 -2.1875 1.5 -3.414062 1.5 -5 Z M 1.5 -5 "/></g></g><g style="fill:#0b3f47;fill-opacity:1;"><g transform="translate(457.19758, 203.225561)"><path style="stroke:none" d="M 7.140625 0 L 6.40625 0 C 4.800781 0 3.5625 -0.425781 2.6875 -1.28125 C 1.8125 -2.132812 1.375 -3.363281 1.375 -4.96875 L 1.375 -10.578125 C 1.375 -12.191406 1.8125 -13.425781 2.6875 -14.28125 C 3.5625 -15.132812 4.800781 -15.5625 6.40625 -15.5625 L 13.453125 -15.5625 C 13.898438 -15.5625 14.125 -15.347656 14.125 -14.921875 L 14.125 -0.640625 C 14.125 -0.210938 13.898438 0 13.453125 0 L 10.890625 0 C 10.460938 0 10.25 -0.210938 10.25 -0.640625 L 10.25 -1.640625 L 10.125 -1.640625 C 9.90625 -1.097656 9.507812 -0.6875 8.9375 -0.40625 C 8.363281 -0.132812 7.765625 0 7.140625 0 Z M 10.25 -5.671875 L 10.25 -11.859375 C 10.25 -12.085938 10.125 -12.203125 9.875 -12.203125 L 7.015625 -12.203125 C 6.359375 -12.203125 5.898438 -12.0625 5.640625 -11.78125 C 5.378906 -11.507812 5.25 -11.050781 5.25 -10.40625 L 5.25 -5.15625 C 5.25 -4.5 5.378906 -4.035156 5.640625 -3.765625 C 5.898438 -3.492188 6.359375 -3.359375 7.015625 -3.359375 L 8.140625 -3.359375 C 9.546875 -3.359375 10.25 -4.128906 10.25 -5.671875 Z M 10.25 -5.671875 "/></g></g><g style="fill:#0b3f47;fill-opacity:1;"><g transform="translate(472.995705, 203.225561)"><path style="stroke:none" d="M 5.0625 0 L 2.46875 0 C 2.039062 0 1.828125 -0.210938 1.828125 -0.640625 L 1.828125 -20.796875 C 1.828125 -21.222656 2.039062 -21.4375 2.46875 -21.4375 L 5.0625 -21.4375 C 5.488281 -21.4375 5.703125 -21.222656 5.703125 -20.796875 L 5.703125 -0.640625 C 5.703125 -0.210938 5.488281 0 5.0625 0 Z M 5.0625 0 "/></g></g><g style="fill:#0b3f47;fill-opacity:1;"><g transform="translate(480.528798, 203.225561)"><path style="stroke:none" d="M 13.140625 0 L 6.40625 0 C 4.800781 0 3.5625 -0.425781 2.6875 -1.28125 C 1.8125 -2.132812 1.375 -3.363281 1.375 -4.96875 L 1.375 -10.578125 C 1.375 -12.191406 1.8125 -13.425781 2.6875 -14.28125 C 3.5625 -15.132812 4.800781 -15.5625 6.40625 -15.5625 L 8.8125 -15.5625 C 10.414062 -15.5625 11.65625 -15.132812 12.53125 -14.28125 C 13.40625 -13.425781 13.84375 -12.191406 13.84375 -10.578125 L 13.84375 -6.703125 C 13.84375 -6.273438 13.628906 -6.0625 13.203125 -6.0625 L 5.546875 -6.0625 C 5.304688 -6.0625 5.1875 -5.953125 5.1875 -5.734375 L 5.1875 -5.0625 C 5.1875 -4.4375 5.320312 -3.984375 5.59375 -3.703125 C 5.875 -3.429688 6.335938 -3.296875 6.984375 -3.296875 L 13.140625 -3.296875 C 13.566406 -3.296875 13.78125 -3.070312 13.78125 -2.625 L 13.78125 -0.609375 C 13.78125 -0.390625 13.734375 -0.234375 13.640625 -0.140625 C 13.554688 -0.046875 13.390625 0 13.140625 0 Z M 5.546875 -8.65625 L 9.703125 -8.65625 C 9.921875 -8.65625 10.03125 -8.769531 10.03125 -9 L 10.03125 -10.46875 C 10.03125 -11.113281 9.894531 -11.566406 9.625 -11.828125 C 9.363281 -12.097656 8.910156 -12.234375 8.265625 -12.234375 L 6.984375 -12.234375 C 6.335938 -12.234375 5.878906 -12.097656 5.609375 -11.828125 C 5.347656 -11.566406 5.21875 -11.113281 5.21875 -10.46875 L 5.21875 -9 C 5.21875 -8.769531 5.328125 -8.65625 5.546875 -8.65625 Z M 5.546875 -8.65625 "/></g></g><path style="fill:none;stroke-width:4;stroke-linecap:round;stroke-linejoin:miter;stroke:#0b3f47;stroke-opacity:1;stroke-miterlimit:4;" d="M 1.999362 2.000004 L 27.535821 2.000004 " transform="matrix(0.75,-0.000000000000002883,0.000000000000002883,0.75,502.660635,193.332028)"/><path style="fill:none;stroke-width:4;stroke-linecap:round;stroke-linejoin:miter;stroke:#0b3f47;stroke-opacity:1;stroke-miterlimit:4;" d="M 1.999347 2.000004 L 27.535806 2.000004 " transform="matrix(0.75,-0.000000000000002883,0.000000000000002883,0.75,225.18799,193.332028)"/></g></svg>